<svg xmlns="http://www.w3.org/2000/svg" id="Livello_1" data-name="Livello 1" viewBox="0 0 2000 1000"><defs><style>      .cls-1 {        fill: #f3e606;      }      .cls-2 {        fill: #fff;      }      .cls-3 {        fill: #f5f5f5;      }      .cls-4 {        stroke: #a4b7c5;        stroke-miterlimit: 10;        stroke-width: 9px;      }      .cls-4, .cls-5 {        fill: #1b202e;      }      .cls-6 {        fill: #d1b00d;      }    </style></defs><path class="cls-4" d="M1876.48,772.03c-42.13-124.47-84.36-250.18-126.67-377.14-49.18-9.66-98.48-18.48-147.86-26.44-31.56,84.28-63.16,169.95-94.79,256.99-17.77-33.41-35.55-66.91-53.34-100.51,36.69-55.4,73.35-109.55,109.96-162.46-56.34-8.57-112.79-16.04-169.31-22.4-6.91,11.13-13.82,22.31-20.72,33.54,0-11.94,0-23.88,0-35.82-15.71-1.69-31.42-3.3-47.14-4.82,18.85-6.24,32.91-20.62,32.91-45.51,0-9.02-2.42-18.01-6.69-26.16,2.23-5.64,3.42-11.9,3.42-18.6,0-31.74-25.56-57.12-62.18-61.07-25.65-2.73-51.31-5.24-76.98-7.52,0,0,0,0,0,0-3.34-.3-6.68-.59-10.02-.88,0,0,0,0,0,0-18.27-1.58-36.55-3.04-54.82-4.39,0,0,0,0,0,0-17.92-1.32-35.84-2.53-53.76-3.64h0c-24.75-1.52-49.5-2.83-74.25-3.93,0,0,0,0,0,0-20.87-.93-41.74-1.7-62.61-2.33-.02,0-.06,0-.08,0-12.68-.38-25.35-.7-38.02-.97-12.79-.27-25.57-.49-38.36-.65-7.51-.09-15.02-.17-22.52-.22-24.06-.18-48.11-.15-72.15.07-5.96.06-11.92.12-17.87.2,0,0,0,0,0,0-9.11.12-18.22.27-27.33.45,0,0,0,0,0,0-17.23.34-34.45.78-51.67,1.33-9.12.29-18.25.61-27.37.95-3.28.12-6.57.25-9.85.38-5.84.23-11.68.48-17.51.74-42.57,1.88-85.09,4.4-127.57,7.53h0c-7.47.56-14.94,1.13-22.41,1.72-25.18,1.99-50.34,4.21-75.48,6.64,0,0,0,0,0,0-97.03,9.04-193.72,21.35-289.9,36.95,0,52.43,0,104.86,0,157.29,26.05-4.38,52.14-8.53,78.26-12.43v251.89c0,28.13-2.13,35.75-2.95,37.61,0,.01-.02.03-.03.04-1.69,1.57-8.55,5.46-18.93,7.53-2.53.51-4.23.84-7.85,1.21-16.18,1.64-32.35,3.36-48.5,5.16,0,51.61,0,103.22,0,154.83,15.11-3.09,30.24-6.1,45.38-9.04,47.61-10.34,78.4-21.68,102.8-38.71.25-.18.5-.35.75-.53.25-.19.5-.38.75-.56,9.13-7.03,17.52-14.14,25.1-21.78-2.91,10.1-5.81,20.2-8.72,30.32,51.67-9.71,103.46-18.48,155.34-26.31,4.64-17.05,9.27-34.06,13.91-51.04,20.9-2.98,41.81-5.8,62.73-8.47,4.65,15.62,9.31,31.22,13.96,46.81,35.71-4.63,71.46-8.82,107.24-12.57,17.06-1.79,34.12-3.47,51.18-5.06,52.39-4.86,104.82-8.78,157.28-11.75h0c78.73-4.45,157.51-6.77,236.26-6.95,5.66-.01,11.32-.01,16.98,0,40.88.07,81.76.71,122.61,1.93,2.43.07,4.86.15,7.3.22,46.5,1.46,92.97,3.67,139.4,6.63,0-12.17,0-24.33,0-36.5,6.8,12.63,13.6,25.24,20.4,37.84,26.55,1.82,53.09,3.88,79.61,6.18,23.77,2.07,47.52,4.33,71.25,6.79-16.52,32.52-33.04,65.34-49.58,98.46,60.02-35.77,119.94-69.42,179.71-100.93,60.25,46.82,120.35,94.06,180.27,141.71-16.07-34.55-32.15-69.2-48.24-103.96,23.14,3.84,46.25,7.87,69.33,12.08Z"></path><path class="cls-1" d="M442.12,370.83c-35.21,117.54-70.39,236.79-105.51,357.75,27.62-4.76,55.27-9.26,82.95-13.49,4.64-17.1,9.28-34.17,13.92-51.21,37.77-5.45,75.59-10.4,113.44-14.85,4.65,15.62,9.3,31.23,13.96,46.82,28.56-3.42,57.14-6.55,85.74-9.4-35.19-107.64-70.35-216.14-105.47-325.47-33.04,2.9-66.05,6.19-99.02,9.85ZM452.69,594.28c12.49-44.03,24.98-87.83,37.48-131.4,12.5,40.82,25,81.53,37.51,122.12-25.02,2.88-50.01,5.97-74.99,9.28Z"></path><path class="cls-1" d="M755.15,347.49c-26.06,1-52.12,2.23-78.16,3.7-10.33.58-20.66,1.2-30.98,1.86,10.32,10.05,20.65,20.11,30.98,30.16v300.33c60.92-5.64,121.91-10,182.93-13.07v-63.97c-34.94,1.51-69.87,3.44-104.78,5.8,0-88.27,0-176.53,0-264.8Z"></path><path class="cls-1" d="M885.53,669.25c61.51-2.74,123.05-4.17,184.58-4.3v-62.48c-35.43-.18-70.87.08-106.31.77,0-22.2,0-44.41,0-66.61,35.43-.42,70.87-.41,106.31.03v-62.48c-35.43-.69-70.87-.96-106.31-.79,0-21.88,0-43.77,0-65.65,35.43.09,70.87.61,106.31,1.57v-62.48c-61.52-2.1-123.06-2.89-184.58-2.38v324.8Z"></path><path class="cls-1" d="M1414.66,372.25c-25.04,40.23-50.1,81.06-75.17,122.49v-130.37c-26.03-2.5-52.08-4.77-78.14-6.81v311.2c26.06,1.09,52.11,2.42,78.14,3.98v-135c25.07,46.9,50.13,93.62,75.17,140.16,29.86,2.31,59.69,4.93,89.5,7.86-29.81-55.82-59.64-111.9-89.5-168.24,29.86-45.54,59.69-90.26,89.5-134.15-29.81-4.01-59.64-7.71-89.5-11.11Z"></path><path class="cls-1" d="M1829.77,730.25c-32.81-5.76-65.66-11.14-98.57-16.14-6.45-15.09-12.91-30.2-19.37-45.32-25.71-3.92-51.45-7.61-77.22-11.07-6.01,13.47-12.02,26.99-18.03,40.55-31.83-3.97-63.69-7.58-95.59-10.84,35.24-96.99,70.45-192.26,105.6-285.82,32.92,5.38,65.81,11.14,98.64,17.28,34.9,104.63,69.75,208.42,104.54,311.36Z"></path><path class="cls-1" d="M343.92,229.93c-10.26,1.21-20.52,2.46-30.77,3.74-48.18,6.04-96.27,12.89-144.23,20.56,0,22.97,0,45.94,0,68.91,22.24-3.71,44.5-7.25,66.78-10.62v288.94c0,40.75-3.82,56.58-16.23,69.43-8.59,8.97-23.38,16.07-39.59,19.36-2.86.58-5.72,1.16-10.96,1.71,0,25.25,0,50.5,0,75.75,41.46-8.83,68.69-18.32,88.28-31.98,43.02-33.15,55.96-63.62,55.95-133.09,0-111.89,0-223.78,0-335.68,10.25-12.42,20.51-24.77,30.77-37.04Z"></path><path class="cls-1" d="M1089.26,347.53c10.85,11.11,21.7,22.21,32.55,33.32v284.3c26.09.25,52.17.74,78.24,1.47,0-104.47,0-208.95,0-313.42-26.07-1.67-52.16-3.1-78.24-4.3-10.85-.5-21.7-.96-32.55-1.37Z"></path><g><path class="cls-2" d="M415.73,220.39c11.69-1.18,23.39-2.31,35.09-3.4,16.47-1.52,27.25,8.64,27.25,25.41,0,16.77-10.78,28.82-27.25,30.45-7.5.74-15,1.5-22.5,2.28v24.32c-4.2.45-8.4.9-12.59,1.36v-80.42ZM450.17,260.78c9.26-.9,15.4-7.65,15.4-17.24,0-9.48-6.14-15.1-15.4-14.23-7.32.69-14.64,1.4-21.96,2.12,0,10.52,0,21.04,0,31.55,7.32-.75,14.64-1.48,21.96-2.2Z"></path><path class="cls-2" d="M511.78,211.78c4.21-.33,8.41-.65,12.62-.97,0,22.37,0,44.74,0,67.11,13.26-1.1,26.53-2.13,39.8-3.11v12.32c-17.48,1.31-34.96,2.72-52.42,4.24v-79.6Z"></path><path class="cls-2" d="M622.39,204.53c4.68-.25,9.36-.49,14.04-.72,11.27,25.62,22.55,51.19,33.83,76.71-4.57.23-9.15.47-13.72.71-2.31-5.29-4.61-10.58-6.92-15.87-13.54.72-27.08,1.5-40.62,2.35-2.31,5.58-4.61,11.17-6.91,16.77-4.54.3-9.07.61-13.61.92,11.3-27.1,22.6-54.05,33.91-80.86ZM644.75,253.74c-5.15-12.09-10.3-24.2-15.45-36.32-5.15,12.66-10.3,25.35-15.45,38.07,10.3-.62,20.6-1.2,30.9-1.75Z"></path><path class="cls-2" d="M714.89,247.03c-9.91-15.1-19.83-30.22-29.74-45.35,5.01-.19,10.02-.37,15.03-.55,6.99,11.12,13.98,22.23,20.98,33.34,7.21-11.58,14.42-23.12,21.64-34.61,5.08-.13,10.17-.24,15.25-.35-10.21,15.61-20.41,31.3-30.61,47.08v31.44c-4.18.15-8.37.32-12.55.48,0-10.49,0-20.99,0-31.48Z"></path><path class="cls-2" d="M789.75,198.94c18.58-.26,37.16-.4,55.75-.43,0,3.87,0,7.75,0,11.62-14.4.04-28.8.14-43.19.32v20.6c13.78-.2,27.57-.34,41.35-.41,0,3.8,0,7.6,0,11.4-13.79.09-27.57.24-41.35.47v21.59c14.61-.27,29.23-.46,43.84-.59v11.73c-18.8.18-37.6.48-56.4.91v-77.23Z"></path><path class="cls-2" d="M883.07,198.63c11.84.09,23.68.22,35.52.41,16.25.26,26.86,10.49,26.86,25.55,0,12.57-7.48,21.44-19.6,23.91,7.69,9,15.38,18,23.07,26.99-5.27-.07-10.54-.14-15.81-.19-7.33-8.73-14.66-17.46-21.99-26.19-5.13-.04-10.25-.07-15.38-.1,0,8.69,0,17.37,0,26.06-4.22,0-8.45,0-12.67,0,0-25.48,0-50.96,0-76.43ZM918.48,237.54c8.99.1,14.4-4.81,14.41-13.17,0-8.25-5.41-13.45-14.41-13.58-7.62-.11-15.24-.2-22.85-.26v26.82c7.62.05,15.24.11,22.85.2Z"></path><path class="cls-2" d="M1031.12,202.24c4.22.17,8.45.36,12.67.54,0,21.13,0,42.25,0,63.38,13.32.49,26.64,1.05,39.97,1.67v11.64c-17.55-.79-35.09-1.47-52.64-2.05,0-25.06,0-50.12,0-75.17Z"></path><path class="cls-2" d="M1142.12,208.25c4.69.31,9.38.64,14.07.96,11.3,25.49,22.59,50.94,33.89,76.33-4.58-.32-9.16-.63-13.75-.93-2.31-5.26-4.62-10.52-6.93-15.78-13.57-.9-27.14-1.74-40.71-2.51-2.31,5-4.62,10.01-6.93,15.02-4.55-.24-9.1-.48-13.65-.71,11.34-24.27,22.67-48.39,34-72.38ZM1164.54,257.29c-5.16-12.01-10.32-24.04-15.48-36.08-5.16,11.34-10.32,22.72-15.49,34.12,10.32.61,20.65,1.26,30.97,1.95Z"></path><path class="cls-2" d="M1221.68,214.29c12.05,1.03,24.09,2.1,36.14,3.23,15.47,1.45,24.87,9.61,24.88,21.7,0,7.3-3.57,12.69-9.63,15.06,6.81,3.04,12.01,10.84,12.01,18.65,0,12.93-9.84,19.31-27.26,17.83-12.04-1.02-24.09-2-36.14-2.92,0-24.52,0-49.03,0-73.55ZM1258.25,247.8c7.57.68,12.01-2.45,12.01-8.51,0-6.06-4.54-10.15-12.01-10.84-8-.74-16.01-1.46-24.02-2.15v19.41c8.01.68,16.01,1.38,24.02,2.1ZM1259.22,279.8c8.22.71,13.3-2.9,13.3-9.58,0-6.58-4.98-11.01-13.2-11.75-8.36-.75-16.73-1.47-25.1-2.16v21.4c8.33.67,16.66,1.37,24.99,2.09Z"></path></g><path class="cls-6" d="M577.67,532.85c-16.56-.79-32.83-1.69-48.84-2.63,7.29,23.71,14.59,47.39,21.89,71.02-40.48,4.51-80.91,9.6-121.29,15.25,8.63-30.57,17.26-61.03,25.89-91.38-13.85-1.11-27.45-2.27-40.75-3.54-18.24,61.46-36.47,123.39-54.68,185.77,15.63-2.58,31.28-5.07,46.93-7.48,4.64-17.13,9.28-34.22,13.93-51.28,46.16-6.71,92.4-12.67,138.69-17.89,4.66,15.62,9.31,31.23,13.97,46.82,16.51-1.9,33.02-3.7,49.54-5.41-15.1-46.26-30.19-92.68-45.27-139.25Z"></path><path class="cls-6" d="M842.69,625.5c0,9.82,0,19.64,0,29.47-49.62,2.61-99.22,6.06-148.78,10.37v-127.85c14.51.47,29.17.86,44.02,1.26,0,31.07,0,62.13,0,93.2,34.9-2.57,69.83-4.71,104.76-6.44Z"></path><path class="cls-6" d="M1052.86,620.23c0,9.59,0,19.19,0,28.78-50.13.22-100.27,1.3-150.39,3.24v-110.2c14.6.22,29.27.42,44.09.6v78.96c35.43-.89,70.87-1.36,106.3-1.39Z"></path><path class="cls-6" d="M1278.27,545.68v108.22c14.68.7,29.35,1.48,44.01,2.33v-110.33c-14.57-.05-29.23-.14-44.01-.22ZM1410.95,546.2c-16.17,0-32.53-.06-49.07-.12,20.97,39.22,41.92,78.31,62.87,117.27,16.99,1.38,33.97,2.87,50.94,4.45-21.56-40.4-43.14-80.93-64.73-121.6Z"></path><path class="cls-6" d="M1806.33,711.58c-21.32-3.66-42.66-7.16-64.03-10.51-6.46-15.11-12.93-30.23-19.39-45.38-33.28-5.22-66.62-10.06-99.99-14.5-6.02,13.5-12.03,27.04-18.05,40.63-20.16-2.5-40.33-4.85-60.52-7.06,15.84-43.37,31.67-86.4,47.49-129.08,56.09-.53,108.83-1.54,157.55-3.27,18.99,56.64,37.97,113.03,56.93,169.17Z"></path><path class="cls-6" d="M296.09,506.96v99.54c0,67.27-12.22,88.56-46.54,115.13-14.34,9.9-34.43,17.57-63.92,24.69v-37.85c17.94-4.68,33.73-13.19,44.04-23.96,19.26-19.86,22.8-44.2,22.8-85.12v-100.1c13.98,2.75,28.54,5.32,43.62,7.66Z"></path><path class="cls-6" d="M1182.83,545v105.4c-14.69-.38-29.38-.68-44.07-.91v-104.81c14.77.11,29.45.24,44.07.33Z"></path><g><path class="cls-5" d="M1674.74,696.86c-37.08,19.44-74.22,39.7-111.41,60.78,18.58-36.47,37.15-72.56,55.71-108.27-20.85-22.78-41.71-45.56-62.59-68.35,27.82,3.2,55.62,6.67,83.38,10.42,11.57-36.51,23.14-72.82,34.7-108.92,11.55,39.7,23.09,79.28,34.63,118.75,27.72,4.01,55.41,8.29,83.06,12.84-19.96,16.14-39.93,32.58-59.92,49.3,19.07,41.34,38.13,82.54,57.17,123.59-38.17-30.22-76.42-60.27-114.72-90.15Z"></path><path class="cls-3" d="M1674.53,669.86c-17.59,9.16-35.18,18.51-52.79,28.04,8.57-16.52,17.13-32.97,25.69-49.33-11.7-12.84-23.41-25.68-35.12-38.52,15.2,1.91,30.39,3.9,45.58,5.97,5.56-17.52,11.13-34.99,16.69-52.41,5.56,19.07,11.13,38.12,16.69,57.13,15.26,2.1,30.52,4.28,45.76,6.54-10.98,9.12-21.96,18.32-32.95,27.61,9.24,20.03,18.48,40.02,27.72,59.98-19.07-15.05-38.16-30.06-57.26-45.02Z"></path></g></svg>